# MagicaVoxel @ ephtracy

# material
mtllib Tree.mtl
usemtl palette

# normals
vn -1 0 0
vn 1 0 0
vn 0 0 1
vn 0 0 -1
vn 0 -1 0
vn 0 1 0

# texcoords
vt 0.533203 0.5
vt 0.900391 0.5

# verts
v -15 14 6
v -15 14 -4
v -15 25 6
v -15 25 -4
v -8 6 1
v -8 6 -2
v -8 14 1
v -8 14 -2
v -4 18 -4
v -4 18 -12
v -4 23 -4
v -4 23 -12
v -2 12 12
v -2 12 4
v -2 14 6
v -2 14 4
v -2 18 12
v -2 18 6
v -1 0 1
v -1 0 -3
v -1 6 1
v -1 6 -2
v -1 6 -3
v -1 6 -7
v -1 9 -2
v -1 9 -4
v -1 14 -4
v -1 18 -4
v -1 18 -7
v 0 6 8
v 0 6 1
v 0 9 5
v 0 9 1
v 0 12 8
v 0 12 5
v 2 15 2
v 2 15 -4
v 2 18 -3
v 2 18 -4
v 2 23 -3
v 2 23 -7
v 2 24 2
v 2 24 -7
v 5 9 -0
v 5 9 -3
v 5 15 -0
v 5 15 -3
v -5 9 1
v -5 9 -2
v -5 14 1
v -5 14 -2
v -1 14 4
v -1 14 -4
v -1 18 6
v -1 18 4
v -1 18 -3
v -1 18 -4
v -1 23 -3
v -1 23 -4
v -1 25 6
v -1 25 -4
v 2 6 -3
v 2 6 -7
v 2 9 -3
v 2 9 -4
v 2 15 -4
v 2 15 -7
v 3 0 1
v 3 0 -3
v 3 6 8
v 3 6 1
v 3 6 -0
v 3 6 -3
v 3 9 5
v 3 9 -0
v 3 12 8
v 3 12 5
v 3 18 -7
v 3 18 -12
v 3 23 -7
v 3 23 -12
v 5 12 12
v 5 12 4
v 5 18 12
v 5 18 4
v 8 6 -0
v 8 6 -3
v 8 15 -0
v 8 15 -3
v 15 15 2
v 15 15 -7
v 15 24 2
v 15 24 -7
v -2 12 12
v -2 18 12
v 5 12 12
v 5 18 12
v 0 6 8
v 0 12 8
v 3 6 8
v 3 12 8
v -15 14 6
v -15 25 6
v -2 14 6
v -2 18 6
v -1 18 6
v -1 25 6
v 2 15 2
v 2 24 2
v 15 15 2
v 15 24 2
v -8 6 1
v -8 14 1
v -5 9 1
v -5 14 1
v -1 0 1
v -1 6 1
v 0 6 1
v 0 9 1
v 3 0 1
v 3 6 1
v 3 6 -0
v 3 9 -0
v 5 9 -0
v 5 15 -0
v 8 6 -0
v 8 15 -0
v -1 18 -3
v -1 23 -3
v 2 18 -3
v 2 23 -3
v -1 9 -4
v -1 14 -4
v -1 18 -4
v 2 9 -4
v 2 15 -4
v 2 18 -4
v 0 9 5
v 0 12 5
v 3 9 5
v 3 12 5
v -2 12 4
v -2 14 4
v -1 14 4
v -1 18 4
v 5 12 4
v 5 18 4
v -8 6 -2
v -8 14 -2
v -5 9 -2
v -5 14 -2
v -1 6 -2
v -1 9 -2
v -1 0 -3
v -1 6 -3
v 2 6 -3
v 2 9 -3
v 3 0 -3
v 3 6 -3
v 5 9 -3
v 5 15 -3
v 8 6 -3
v 8 15 -3
v -15 14 -4
v -15 25 -4
v -4 18 -4
v -4 23 -4
v -1 14 -4
v -1 18 -4
v -1 23 -4
v -1 25 -4
v -1 6 -7
v -1 18 -7
v 2 6 -7
v 2 15 -7
v 2 18 -7
v 2 23 -7
v 2 24 -7
v 3 18 -7
v 3 23 -7
v 15 15 -7
v 15 24 -7
v -4 18 -12
v -4 23 -12
v 3 18 -12
v 3 23 -12
v -1 0 1
v 3 0 1
v -1 0 -3
v 3 0 -3
v 0 6 8
v 3 6 8
v -8 6 1
v -1 6 1
v 0 6 1
v 3 6 1
v 3 6 -0
v 8 6 -0
v -8 6 -2
v -1 6 -2
v -1 6 -3
v 2 6 -3
v 3 6 -3
v 8 6 -3
v -1 6 -7
v 2 6 -7
v -2 12 12
v 5 12 12
v 0 12 8
v 3 12 8
v 0 12 5
v 3 12 5
v -2 12 4
v 5 12 4
v -15 14 6
v -2 14 6
v -2 14 4
v -1 14 4
v -8 14 1
v -5 14 1
v -8 14 -2
v -5 14 -2
v -15 14 -4
v -1 14 -4
v 2 15 2
v 15 15 2
v 5 15 -0
v 8 15 -0
v 5 15 -3
v 8 15 -3
v 2 15 -4
v 2 15 -7
v 15 15 -7
v -1 18 -3
v 2 18 -3
v -4 18 -4
v -1 18 -4
v 2 18 -4
v -1 18 -7
v 2 18 -7
v 3 18 -7
v -4 18 -12
v 3 18 -12
v 0 9 5
v 3 9 5
v -5 9 1
v 0 9 1
v 3 9 -0
v 5 9 -0
v -5 9 -2
v -1 9 -2
v 2 9 -3
v 5 9 -3
v -1 9 -4
v 2 9 -4
v -2 18 12
v 5 18 12
v -2 18 6
v -1 18 6
v -1 18 4
v 5 18 4
v -1 23 -3
v 2 23 -3
v -4 23 -4
v -1 23 -4
v 2 23 -7
v 3 23 -7
v -4 23 -12
v 3 23 -12
v 2 24 2
v 15 24 2
v 2 24 -7
v 15 24 -7
v -15 25 6
v -1 25 6
v -15 25 -4
v -1 25 -4

# faces
f 3/2/1 2/2/1 1/2/1
f 4/2/1 2/2/1 3/2/1
f 7/1/1 6/1/1 5/1/1
f 8/1/1 6/1/1 7/1/1
f 11/2/1 10/2/1 9/2/1
f 12/2/1 10/2/1 11/2/1
f 15/2/1 14/2/1 13/2/1
f 16/2/1 14/2/1 15/2/1
f 17/2/1 15/2/1 13/2/1
f 18/2/1 15/2/1 17/2/1
f 21/1/1 20/1/1 19/1/1
f 22/1/1 20/1/1 21/1/1
f 23/1/1 20/1/1 22/1/1
f 25/1/1 24/1/1 23/1/1
f 25/1/1 23/1/1 22/1/1
f 26/1/1 24/1/1 25/1/1
f 27/1/1 24/1/1 26/1/1
f 28/1/1 24/1/1 27/1/1
f 29/1/1 24/1/1 28/1/1
f 32/1/1 31/1/1 30/1/1
f 33/1/1 31/1/1 32/1/1
f 34/1/1 32/1/1 30/1/1
f 35/1/1 32/1/1 34/1/1
f 38/2/1 37/2/1 36/2/1
f 39/2/1 37/2/1 38/2/1
f 40/2/1 38/2/1 36/2/1
f 42/2/1 40/2/1 36/2/1
f 42/2/1 41/2/1 40/2/1
f 43/2/1 41/2/1 42/2/1
f 46/1/1 45/1/1 44/1/1
f 47/1/1 45/1/1 46/1/1
f 48/1/2 49/1/2 50/1/2
f 50/1/2 49/1/2 51/1/2
f 52/2/2 53/2/2 55/2/2
f 55/2/2 53/2/2 56/2/2
f 56/2/2 53/2/2 57/2/2
f 54/2/2 55/2/2 58/2/2
f 55/2/2 56/2/2 58/2/2
f 54/2/2 58/2/2 60/2/2
f 58/2/2 59/2/2 60/2/2
f 60/2/2 59/2/2 61/2/2
f 62/1/2 63/1/2 64/1/2
f 64/1/2 63/1/2 65/1/2
f 65/1/2 63/1/2 66/1/2
f 66/1/2 63/1/2 67/1/2
f 68/1/2 69/1/2 71/1/2
f 71/1/2 69/1/2 72/1/2
f 72/1/2 69/1/2 73/1/2
f 70/1/2 71/1/2 74/1/2
f 71/1/2 72/1/2 74/1/2
f 74/1/2 72/1/2 75/1/2
f 70/1/2 74/1/2 76/1/2
f 76/1/2 74/1/2 77/1/2
f 78/2/2 79/2/2 80/2/2
f 80/2/2 79/2/2 81/2/2
f 82/2/2 83/2/2 84/2/2
f 84/2/2 83/2/2 85/2/2
f 86/1/2 87/1/2 88/1/2
f 88/1/2 87/1/2 89/1/2
f 90/2/2 91/2/2 92/2/2
f 92/2/2 91/2/2 93/2/2
f 96/2/3 95/2/3 94/2/3
f 97/2/3 95/2/3 96/2/3
f 100/1/3 99/1/3 98/1/3
f 101/1/3 99/1/3 100/1/3
f 104/2/3 103/2/3 102/2/3
f 105/2/3 103/2/3 104/2/3
f 106/2/3 103/2/3 105/2/3
f 107/2/3 103/2/3 106/2/3
f 110/2/3 109/2/3 108/2/3
f 111/2/3 109/2/3 110/2/3
f 114/1/3 113/1/3 112/1/3
f 115/1/3 113/1/3 114/1/3
f 117/1/3 114/1/3 112/1/3
f 118/1/3 114/1/3 117/1/3
f 118/1/3 117/1/3 116/1/3
f 119/1/3 114/1/3 118/1/3
f 120/1/3 118/1/3 116/1/3
f 121/1/3 118/1/3 120/1/3
f 124/1/3 123/1/3 122/1/3
f 126/1/3 124/1/3 122/1/3
f 126/1/3 125/1/3 124/1/3
f 127/1/3 125/1/3 126/1/3
f 130/2/3 129/2/3 128/2/3
f 131/2/3 129/2/3 130/2/3
f 135/1/3 133/1/3 132/1/3
f 135/1/3 134/1/3 133/1/3
f 136/1/3 134/1/3 135/1/3
f 137/1/3 134/1/3 136/1/3
f 138/1/4 139/1/4 140/1/4
f 140/1/4 139/1/4 141/1/4
f 142/2/4 143/2/4 144/2/4
f 142/2/4 144/2/4 146/2/4
f 144/2/4 145/2/4 146/2/4
f 146/2/4 145/2/4 147/2/4
f 148/1/4 149/1/4 150/1/4
f 150/1/4 149/1/4 151/1/4
f 148/1/4 150/1/4 152/1/4
f 152/1/4 150/1/4 153/1/4
f 154/1/4 155/1/4 156/1/4
f 154/1/4 156/1/4 158/1/4
f 156/1/4 157/1/4 158/1/4
f 158/1/4 157/1/4 159/1/4
f 159/1/4 157/1/4 160/1/4
f 159/1/4 160/1/4 162/1/4
f 160/1/4 161/1/4 162/1/4
f 162/1/4 161/1/4 163/1/4
f 164/2/4 165/2/4 166/2/4
f 166/2/4 165/2/4 167/2/4
f 164/2/4 166/2/4 168/2/4
f 168/2/4 166/2/4 169/2/4
f 167/2/4 165/2/4 170/2/4
f 170/2/4 165/2/4 171/2/4
f 172/1/4 173/1/4 174/1/4
f 174/1/4 173/1/4 175/1/4
f 175/1/4 173/1/4 176/1/4
f 175/2/4 176/2/4 179/2/4
f 177/2/4 178/2/4 180/2/4
f 175/2/4 179/2/4 181/2/4
f 179/2/4 180/2/4 181/2/4
f 180/2/4 178/2/4 182/2/4
f 181/2/4 180/2/4 182/2/4
f 183/2/4 184/2/4 185/2/4
f 185/2/4 184/2/4 186/2/4
f 189/1/5 188/1/5 187/1/5
f 190/1/5 188/1/5 189/1/5
f 195/1/5 192/1/5 191/1/5
f 196/1/5 192/1/5 195/1/5
f 199/1/5 194/1/5 193/1/5
f 200/1/5 194/1/5 199/1/5
f 203/1/5 198/1/5 197/1/5
f 204/1/5 198/1/5 203/1/5
f 205/1/5 202/1/5 201/1/5
f 206/1/5 202/1/5 205/1/5
f 209/2/5 208/2/5 207/2/5
f 210/2/5 208/2/5 209/2/5
f 211/2/5 209/2/5 207/2/5
f 212/2/5 208/2/5 210/2/5
f 213/2/5 211/2/5 207/2/5
f 213/2/5 212/2/5 211/2/5
f 214/2/5 208/2/5 212/2/5
f 214/2/5 212/2/5 213/2/5
f 217/2/5 216/2/5 215/2/5
f 219/2/5 217/2/5 215/2/5
f 219/2/5 218/2/5 217/2/5
f 220/2/5 218/2/5 219/2/5
f 221/2/5 219/2/5 215/2/5
f 222/2/5 218/2/5 220/2/5
f 223/2/5 221/2/5 215/2/5
f 223/2/5 222/2/5 221/2/5
f 224/2/5 218/2/5 222/2/5
f 224/2/5 222/2/5 223/2/5
f 227/2/5 226/2/5 225/2/5
f 228/2/5 226/2/5 227/2/5
f 229/2/5 227/2/5 225/2/5
f 230/2/5 226/2/5 228/2/5
f 231/2/5 229/2/5 225/2/5
f 231/2/5 230/2/5 229/2/5
f 232/2/5 230/2/5 231/2/5
f 233/2/5 226/2/5 230/2/5
f 233/2/5 230/2/5 232/2/5
f 237/2/5 235/2/5 234/2/5
f 238/2/5 235/2/5 237/2/5
f 239/2/5 237/2/5 236/2/5
f 242/2/5 240/2/5 239/2/5
f 242/2/5 241/2/5 240/2/5
f 242/2/5 239/2/5 236/2/5
f 243/2/5 241/2/5 242/2/5
f 244/1/6 245/1/6 247/1/6
f 247/1/6 245/1/6 248/1/6
f 246/1/6 247/1/6 248/1/6
f 246/1/6 248/1/6 250/1/6
f 248/1/6 249/1/6 250/1/6
f 250/1/6 249/1/6 251/1/6
f 251/1/6 249/1/6 252/1/6
f 252/1/6 249/1/6 253/1/6
f 251/1/6 252/1/6 254/1/6
f 254/1/6 252/1/6 255/1/6
f 256/2/6 257/2/6 258/2/6
f 258/2/6 257/2/6 259/2/6
f 259/2/6 257/2/6 260/2/6
f 260/2/6 257/2/6 261/2/6
f 262/2/6 263/2/6 265/2/6
f 265/2/6 263/2/6 266/2/6
f 264/2/6 265/2/6 266/2/6
f 264/2/6 266/2/6 268/2/6
f 266/2/6 267/2/6 268/2/6
f 268/2/6 267/2/6 269/2/6
f 270/2/6 271/2/6 272/2/6
f 272/2/6 271/2/6 273/2/6
f 274/2/6 275/2/6 276/2/6
f 276/2/6 275/2/6 277/2/6
